# xmcd
#
# Track frame offsets:
#  150
#  9791
#  12958
#  18075
#  23946
#  26385
#  32350
#  38946
#  45336
#  55576
#  56613
#  69466
#  74136
#  88380
#  93012
#  103519
#  116191
#
# Disc length: 2374 seconds
#
# Revision: 0
# Processed by: cddbd v1.4PL0 Copyright (c) Steve Scherf et al.
# Submitted via: AltoMP3_Maker 3.0
#
DISCID=cb094411
DTITLE=Doug Moreland - Number Tres
DYEAR=1900
DGENRE=
TTITLE0=Heart as Big as Texas
TTITLE1=Sugar Toast
TTITLE2=Blew, You don't Know Me
TTITLE3=The Birthday Song
TTITLE4=Snatchin' Kisses Toast, Pickle Song
TTITLE5=Sonova Beach
TTITLE6=Panties Toast, The Girlfriend
TTITLE7=(The Shot!)
TTITLE8=The Gay Caballero
TTITLE9=Inibriation
TTITLE10=Larry
TTITLE11=Lovers Toast
TTITLE12=The Beer Song
TTITLE13=The Clap
TTITLE14=Give a Little
TTITLE15=Bar in the Car Song
TTITLE16=Viva la Caca
EXTD=
EXTT0=
EXTT1=
EXTT2=
EXTT3=
EXTT4=
EXTT5=
EXTT6=
EXTT7=
EXTT8=
EXTT9=
EXTT10=
EXTT11=
EXTT12=
EXTT13=
EXTT14=
EXTT15=
EXTT16=
PLAYORDER=
